<?xml version="1.0"?>
<svg xmlns="http://www.w3.org/2000/svg" xmlns:xlink="http://www.w3.org/1999/xlink" xmlns:svgjs="http://svgjs.com/svgjs" version="1.1" width="512" height="512" x="0" y="0" viewBox="0 0 297 297" style="enable-background:new 0 0 512 512" xml:space="preserve"><g>
<g xmlns="http://www.w3.org/2000/svg">
	<circle cx="263.157" cy="260.782" r="33.843" fill="#07eee0" data-original="#000000" style=""/>
	<path d="M242.24,37.999c-47.497-47.499-124.782-47.497-172.28,0C58.316,49.643,49.245,63.446,43.162,78.486l158.59,158.59   c15.041-6.083,28.844-15.154,40.487-26.798C289.738,162.782,289.738,85.496,242.24,37.999z" fill="#07eee0" data-original="#000000" style=""/>
	<path d="M34.66,114.53c-2.104,26.784,4.696,53.523,19.205,75.878L1.803,242.472c-2.404,2.403-2.404,6.298,0,8.701l27.263,27.263   c1.201,1.202,2.775,1.803,4.351,1.803c1.574,0,3.15-0.601,4.351-1.802l52.064-52.063c22.356,14.51,49.09,21.308,75.878,19.205   c4.607-0.362,9.171-0.989,13.673-1.865L36.525,100.857C35.649,105.359,35.022,109.923,34.66,114.53z" fill="#07eee0" data-original="#000000" style=""/>
</g>
<g xmlns="http://www.w3.org/2000/svg">
</g>
<g xmlns="http://www.w3.org/2000/svg">
</g>
<g xmlns="http://www.w3.org/2000/svg">
</g>
<g xmlns="http://www.w3.org/2000/svg">
</g>
<g xmlns="http://www.w3.org/2000/svg">
</g>
<g xmlns="http://www.w3.org/2000/svg">
</g>
<g xmlns="http://www.w3.org/2000/svg">
</g>
<g xmlns="http://www.w3.org/2000/svg">
</g>
<g xmlns="http://www.w3.org/2000/svg">
</g>
<g xmlns="http://www.w3.org/2000/svg">
</g>
<g xmlns="http://www.w3.org/2000/svg">
</g>
<g xmlns="http://www.w3.org/2000/svg">
</g>
<g xmlns="http://www.w3.org/2000/svg">
</g>
<g xmlns="http://www.w3.org/2000/svg">
</g>
<g xmlns="http://www.w3.org/2000/svg">
</g>
</g></svg>
